<?xml version="1.0" ?>
<mxfile host="65bd71144e">
	<diagram id="RFndyrCF2-3MIdXtw8gX" name="Page-1">
		<mxGraphModel dx="422" dy="816" grid="1" gridSize="10" guides="1" tooltips="1" connect="1" arrows="1" fold="1" page="1" pageScale="1" pageWidth="850" pageHeight="1100" math="0" shadow="0">
			<root>
				<mxCell id="0"/>
				<mxCell id="1" parent="0"/>
				<mxCell id="4808116400" value="&lt;b&gt;Module&lt;/b&gt;" style="rounded=1;whiteSpace=wrap;html=1;fillColor=#CC99FF;strokeColor=#000000;" parent="1" vertex="1">
					<mxGeometry x="1235.02" y="0.0" width="120" height="120" as="geometry"/>
				</mxCell>
				<mxCell id="4808114624" value="&lt;b&gt;FunctionDef&lt;/b&gt;&lt;br&gt;name: main&lt;br&gt;lineno: 2&lt;br&gt;col_offset: 0&lt;br&gt;end_lineno: 8&lt;br&gt;end_col_offset: 14" style="rounded=1;whiteSpace=wrap;html=1;fillColor=#66B2FF;strokeColor=#000000;" parent="1" vertex="1">
					<mxGeometry x="1235.02" y="144.0" width="120" height="120" as="geometry"/>
				</mxCell>
				<mxCell id="4808119904" value="&lt;b&gt;arguments&lt;/b&gt;" style="rounded=1;whiteSpace=wrap;html=1;fillColor=#E6E6E6;strokeColor=#000000;" parent="1" vertex="1">
					<mxGeometry x="1583.02" y="288.0" width="120" height="120" as="geometry"/>
				</mxCell>
				<mxCell id="4808119760" value="&lt;b&gt;FunctionDef&lt;/b&gt;&lt;br&gt;name: plus&lt;br&gt;lineno: 3&lt;br&gt;col_offset: 4&lt;br&gt;end_lineno: 4&lt;br&gt;end_col_offset: 20" style="rounded=1;whiteSpace=wrap;html=1;fillColor=#66B2FF;strokeColor=#000000;" parent="1" vertex="1">
					<mxGeometry x="1451.02" y="288.0" width="120" height="120" as="geometry"/>
				</mxCell>
				<mxCell id="4808119136" value="&lt;b&gt;arguments&lt;/b&gt;" style="rounded=1;whiteSpace=wrap;html=1;fillColor=#E6E6E6;strokeColor=#000000;" parent="1" vertex="1">
					<mxGeometry x="1604.02" y="432.0" width="120" height="120" as="geometry"/>
				</mxCell>
				<mxCell id="4808118416" value="&lt;b&gt;arg&lt;/b&gt;&lt;br&gt;arg: a&lt;br&gt;lineno: 3&lt;br&gt;col_offset: 13&lt;br&gt;end_lineno: 3&lt;br&gt;end_col_offset: 14" style="rounded=1;whiteSpace=wrap;html=1;fillColor=#E6E6E6;strokeColor=#000000;" parent="1" vertex="1">
					<mxGeometry x="1736.019" y="576.0" width="120" height="120" as="geometry"/>
				</mxCell>
				<mxCell id="4808118320" value="&lt;b&gt;arg&lt;/b&gt;&lt;br&gt;arg: b&lt;br&gt;lineno: 3&lt;br&gt;col_offset: 16&lt;br&gt;end_lineno: 3&lt;br&gt;end_col_offset: 17" style="rounded=1;whiteSpace=wrap;html=1;fillColor=#E6E6E6;strokeColor=#000000;" parent="1" vertex="1">
					<mxGeometry x="1604.02" y="576.0" width="120" height="120" as="geometry"/>
				</mxCell>
				<mxCell id="4808118992" value="&lt;b&gt;Return&lt;/b&gt;&lt;br&gt;lineno: 4&lt;br&gt;col_offset: 8&lt;br&gt;end_lineno: 4&lt;br&gt;end_col_offset: 20" style="rounded=1;whiteSpace=wrap;html=1;fillColor=#D6FFC9;strokeColor=#000000;" parent="1" vertex="1">
					<mxGeometry x="1463.02" y="432.0" width="120" height="120" as="geometry"/>
				</mxCell>
				<mxCell id="4808118128" value="&lt;b&gt;BinOp&lt;/b&gt;&lt;br&gt;lineno: 4&lt;br&gt;col_offset: 15&lt;br&gt;end_lineno: 4&lt;br&gt;end_col_offset: 20" style="rounded=1;whiteSpace=wrap;html=1;fillColor=#CCCCFF;strokeColor=#000000;" parent="1" vertex="1">
					<mxGeometry x="1472.02" y="576.0" width="120" height="120" as="geometry"/>
				</mxCell>
				<mxCell id="4808115968" value="&lt;b&gt;Name&lt;/b&gt;&lt;br&gt;id: a&lt;br&gt;lineno: 4&lt;br&gt;col_offset: 15&lt;br&gt;end_lineno: 4&lt;br&gt;end_col_offset: 16" style="rounded=1;whiteSpace=wrap;html=1;fillColor=#CCE5FF;strokeColor=#000000;" parent="1" vertex="1">
					<mxGeometry x="1736.019" y="720.0" width="120" height="120" as="geometry"/>
				</mxCell>
				<mxCell id="4808120624" value="&lt;b&gt;Load&lt;/b&gt;" style="rounded=1;whiteSpace=wrap;html=1;fillColor=#E6E6E6;strokeColor=#000000;" parent="1" vertex="1">
					<mxGeometry x="1344.02" y="864.0" width="120" height="120" as="geometry"/>
				</mxCell>
				<mxCell id="4808116208" value="&lt;b&gt;Add&lt;/b&gt;" style="rounded=1;whiteSpace=wrap;html=1;fillColor=#E6E6E6;strokeColor=#000000;" parent="1" vertex="1">
					<mxGeometry x="1604.02" y="720.0" width="120" height="120" as="geometry"/>
				</mxCell>
				<mxCell id="4808116592" value="&lt;b&gt;Name&lt;/b&gt;&lt;br&gt;id: b&lt;br&gt;lineno: 4&lt;br&gt;col_offset: 19&lt;br&gt;end_lineno: 4&lt;br&gt;end_col_offset: 20" style="rounded=1;whiteSpace=wrap;html=1;fillColor=#CCE5FF;strokeColor=#000000;" parent="1" vertex="1">
					<mxGeometry x="1472.02" y="720.0" width="120" height="120" as="geometry"/>
				</mxCell>
				<mxCell id="4808119184" value="&lt;b&gt;Assign&lt;/b&gt;&lt;br&gt;lineno: 6&lt;br&gt;col_offset: 4&lt;br&gt;end_lineno: 6&lt;br&gt;end_col_offset: 15" style="rounded=1;whiteSpace=wrap;html=1;fillColor=#D6FFC9;strokeColor=#000000;" parent="1" vertex="1">
					<mxGeometry x="868.02" y="288.0" width="120" height="120" as="geometry"/>
				</mxCell>
				<mxCell id="4808118944" value="&lt;b&gt;Tuple&lt;/b&gt;&lt;br&gt;lineno: 6&lt;br&gt;col_offset: 4&lt;br&gt;end_lineno: 6&lt;br&gt;end_col_offset: 8" style="rounded=1;whiteSpace=wrap;html=1;fillColor=#FFD9B3;strokeColor=#000000;" parent="1" vertex="1">
					<mxGeometry x="543.0" y="432.0" width="120" height="120" as="geometry"/>
				</mxCell>
				<mxCell id="4808120144" value="&lt;b&gt;Name&lt;/b&gt;&lt;br&gt;id: x&lt;br&gt;lineno: 6&lt;br&gt;col_offset: 4&lt;br&gt;end_lineno: 6&lt;br&gt;end_col_offset: 5" style="rounded=1;whiteSpace=wrap;html=1;fillColor=#CCE5FF;strokeColor=#000000;" parent="1" vertex="1">
					<mxGeometry x="604.0" y="576.0" width="120" height="120" as="geometry"/>
				</mxCell>
				<mxCell id="4808115872" value="&lt;b&gt;Store&lt;/b&gt;" style="rounded=1;whiteSpace=wrap;html=1;fillColor=#E6E6E6;strokeColor=#000000;" parent="1" vertex="1">
					<mxGeometry x="422.0" y="720.0" width="120" height="120" as="geometry"/>
				</mxCell>
				<mxCell id="4808118752" value="&lt;b&gt;Name&lt;/b&gt;&lt;br&gt;id: y&lt;br&gt;lineno: 6&lt;br&gt;col_offset: 7&lt;br&gt;end_lineno: 6&lt;br&gt;end_col_offset: 8" style="rounded=1;whiteSpace=wrap;html=1;fillColor=#CCE5FF;strokeColor=#000000;" parent="1" vertex="1">
					<mxGeometry x="472.0" y="576.0" width="120" height="120" as="geometry"/>
				</mxCell>
				<mxCell id="4808118368" value="&lt;b&gt;Tuple&lt;/b&gt;&lt;br&gt;lineno: 6&lt;br&gt;col_offset: 11&lt;br&gt;end_lineno: 6&lt;br&gt;end_col_offset: 15" style="rounded=1;whiteSpace=wrap;html=1;fillColor=#FFD9B3;strokeColor=#000000;" parent="1" vertex="1">
					<mxGeometry x="868.02" y="432.0" width="120" height="120" as="geometry"/>
				</mxCell>
				<mxCell id="4808120192" value="&lt;b&gt;Constant&lt;/b&gt;&lt;br&gt;value: 1&lt;br&gt;lineno: 6&lt;br&gt;col_offset: 11&lt;br&gt;end_lineno: 6&lt;br&gt;end_col_offset: 12" style="rounded=1;whiteSpace=wrap;html=1;fillColor=#FFFFFF;strokeColor=#000000;" parent="1" vertex="1">
					<mxGeometry x="868.02" y="576.0" width="120" height="120" as="geometry"/>
				</mxCell>
				<mxCell id="4808114480" value="&lt;b&gt;Constant&lt;/b&gt;&lt;br&gt;value: 2&lt;br&gt;lineno: 6&lt;br&gt;col_offset: 14&lt;br&gt;end_lineno: 6&lt;br&gt;end_col_offset: 15" style="rounded=1;whiteSpace=wrap;html=1;fillColor=#FFFFFF;strokeColor=#000000;" parent="1" vertex="1">
					<mxGeometry x="736.0" y="576.0" width="120" height="120" as="geometry"/>
				</mxCell>
				<mxCell id="4541925984" value="&lt;b&gt;Assign&lt;/b&gt;" style="rounded=1;whiteSpace=wrap;html=1;fillColor=#D6FFC9;strokeColor=#000000;" parent="1" vertex="1">
					<mxGeometry x="1175.02" y="432.0" width="120" height="120" as="geometry"/>
				</mxCell>
				<mxCell id="4474393248" value="&lt;b&gt;Tuple&lt;/b&gt;" style="rounded=1;whiteSpace=wrap;html=1;fillColor=#FFD9B3;strokeColor=#000000;" parent="1" vertex="1">
					<mxGeometry x="1000.02" y="576.0" width="120" height="120" as="geometry"/>
				</mxCell>
				<mxCell id="4541938896" value="&lt;b&gt;Name&lt;/b&gt;&lt;br&gt;id: a_new" style="rounded=1;whiteSpace=wrap;html=1;fillColor=#CCE5FF;strokeColor=#000000;" parent="1" vertex="1">
					<mxGeometry x="868.02" y="720.0" width="120" height="120" as="geometry"/>
				</mxCell>
				<mxCell id="4473949488" value="&lt;b&gt;Store&lt;/b&gt;" style="rounded=1;whiteSpace=wrap;html=1;fillColor=#E6E6E6;strokeColor=#000000;" parent="1" vertex="1">
					<mxGeometry x="868.02" y="864.0" width="120" height="120" as="geometry"/>
				</mxCell>
				<mxCell id="4541939040" value="&lt;b&gt;Name&lt;/b&gt;&lt;br&gt;id: b_new" style="rounded=1;whiteSpace=wrap;html=1;fillColor=#CCE5FF;strokeColor=#000000;" parent="1" vertex="1">
					<mxGeometry x="1000.02" y="720.0" width="120" height="120" as="geometry"/>
				</mxCell>
				<mxCell id="4541938800" value="&lt;b&gt;Store&lt;/b&gt;" style="rounded=1;whiteSpace=wrap;html=1;fillColor=#E6E6E6;strokeColor=#000000;" parent="1" vertex="1">
					<mxGeometry x="1000.02" y="864.0" width="120" height="120" as="geometry"/>
				</mxCell>
				<mxCell id="4541938992" value="&lt;b&gt;Tuple&lt;/b&gt;" style="rounded=1;whiteSpace=wrap;html=1;fillColor=#FFD9B3;strokeColor=#000000;" parent="1" vertex="1">
					<mxGeometry x="1175.02" y="576.0" width="120" height="120" as="geometry"/>
				</mxCell>
				<mxCell id="4808119280" value="&lt;b&gt;Name&lt;/b&gt;&lt;br&gt;id: x&lt;br&gt;lineno: 7&lt;br&gt;col_offset: 15&lt;br&gt;end_lineno: 7&lt;br&gt;end_col_offset: 16" style="rounded=1;whiteSpace=wrap;html=1;fillColor=#CCE5FF;strokeColor=#000000;" parent="1" vertex="1">
					<mxGeometry x="1170.02" y="720.0" width="120" height="120" as="geometry"/>
				</mxCell>
				<mxCell id="4541938320" value="&lt;b&gt;Name&lt;/b&gt;&lt;br&gt;id: y&lt;br&gt;lineno: 7&lt;br&gt;col_offset: 18&lt;br&gt;end_lineno: 7&lt;br&gt;end_col_offset: 19" style="rounded=1;whiteSpace=wrap;html=1;fillColor=#CCE5FF;strokeColor=#000000;" parent="1" vertex="1">
					<mxGeometry x="1302.02" y="720.0" width="120" height="120" as="geometry"/>
				</mxCell>
				<mxCell id="4808114672" value="&lt;b&gt;Assign&lt;/b&gt;&lt;br&gt;lineno: 7&lt;br&gt;col_offset: 4&lt;br&gt;end_lineno: 7&lt;br&gt;end_col_offset: 20" style="rounded=1;whiteSpace=wrap;html=1;fillColor=#D6FFC9;strokeColor=#000000;" parent="1" vertex="1">
					<mxGeometry x="349.0" y="288.0" width="120" height="120" as="geometry"/>
				</mxCell>
				<mxCell id="4808120096" value="&lt;b&gt;Name&lt;/b&gt;&lt;br&gt;id: res&lt;br&gt;lineno: 7&lt;br&gt;col_offset: 4&lt;br&gt;end_lineno: 7&lt;br&gt;end_col_offset: 7" style="rounded=1;whiteSpace=wrap;html=1;fillColor=#CCE5FF;strokeColor=#000000;" parent="1" vertex="1">
					<mxGeometry x="349.0" y="432.0" width="120" height="120" as="geometry"/>
				</mxCell>
				<mxCell id="4541938608" value="&lt;b&gt;BinOp&lt;/b&gt;&lt;br&gt;lineno: 4&lt;br&gt;col_offset: 15&lt;br&gt;end_lineno: 4&lt;br&gt;end_col_offset: 20" style="rounded=1;whiteSpace=wrap;html=1;fillColor=#CCCCFF;strokeColor=#000000;" parent="1" vertex="1">
					<mxGeometry x="175.0" y="432.0" width="120" height="120" as="geometry"/>
				</mxCell>
				<mxCell id="4541939088" value="&lt;b&gt;Name&lt;/b&gt;&lt;br&gt;id: a_new&lt;br&gt;lineno: 4&lt;br&gt;col_offset: 15&lt;br&gt;end_lineno: 4&lt;br&gt;end_col_offset: 16" style="rounded=1;whiteSpace=wrap;html=1;fillColor=#CCE5FF;strokeColor=#000000;" parent="1" vertex="1">
					<mxGeometry x="264.0" y="576.0" width="120" height="120" as="geometry"/>
				</mxCell>
				<mxCell id="4541925936" value="&lt;b&gt;Load&lt;/b&gt;" style="rounded=1;whiteSpace=wrap;html=1;fillColor=#E6E6E6;strokeColor=#000000;" parent="1" vertex="1">
					<mxGeometry x="229.0" y="720.0" width="120" height="120" as="geometry"/>
				</mxCell>
				<mxCell id="4541939184" value="&lt;b&gt;Add&lt;/b&gt;" style="rounded=1;whiteSpace=wrap;html=1;fillColor=#E6E6E6;strokeColor=#000000;" parent="1" vertex="1">
					<mxGeometry x="0.0" y="576.0" width="120" height="120" as="geometry"/>
				</mxCell>
				<mxCell id="4541939136" value="&lt;b&gt;Name&lt;/b&gt;&lt;br&gt;id: b_new&lt;br&gt;lineno: 4&lt;br&gt;col_offset: 19&lt;br&gt;end_lineno: 4&lt;br&gt;end_col_offset: 20" style="rounded=1;whiteSpace=wrap;html=1;fillColor=#CCE5FF;strokeColor=#000000;" parent="1" vertex="1">
					<mxGeometry x="132.0" y="576.0" width="120" height="120" as="geometry"/>
				</mxCell>
				<mxCell id="4808118224" value="&lt;b&gt;Return&lt;/b&gt;&lt;br&gt;lineno: 8&lt;br&gt;col_offset: 4&lt;br&gt;end_lineno: 8&lt;br&gt;end_col_offset: 14" style="rounded=1;whiteSpace=wrap;html=1;fillColor=#D6FFC9;strokeColor=#000000;" parent="1" vertex="1">
					<mxGeometry x="1310.02" y="288.0" width="120" height="120" as="geometry"/>
				</mxCell>
				<mxCell id="4808114240" value="&lt;b&gt;Name&lt;/b&gt;&lt;br&gt;id: res&lt;br&gt;lineno: 8&lt;br&gt;col_offset: 11&lt;br&gt;end_lineno: 8&lt;br&gt;end_col_offset: 14" style="rounded=1;whiteSpace=wrap;html=1;fillColor=#CCE5FF;strokeColor=#000000;" parent="1" vertex="1">
					<mxGeometry x="1326.02" y="432.0" width="120" height="120" as="geometry"/>
				</mxCell>
				<mxCell id="4808116400_4808114624" value="['body', 0]" style="endArrow=classic;html=1;" parent="1" source="4808116400" target="4808114624" edge="1">
					<mxGeometry width="50" height="50" relative="1" as="geometry">
						<mxPoint x="400" y="440" as="sourcePoint"/>
						<mxPoint x="450" y="390" as="targetPoint"/>
					</mxGeometry>
				</mxCell>
				<mxCell id="4808114624_4808119904" value="['args']" style="endArrow=classic;html=1;" parent="1" source="4808114624" target="4808119904" edge="1">
					<mxGeometry width="50" height="50" relative="1" as="geometry">
						<mxPoint x="400" y="440" as="sourcePoint"/>
						<mxPoint x="450" y="390" as="targetPoint"/>
					</mxGeometry>
				</mxCell>
				<mxCell id="4808114624_4808119760" value="['body', 0]" style="endArrow=classic;html=1;" parent="1" source="4808114624" target="4808119760" edge="1">
					<mxGeometry width="50" height="50" relative="1" as="geometry">
						<mxPoint x="400" y="440" as="sourcePoint"/>
						<mxPoint x="450" y="390" as="targetPoint"/>
					</mxGeometry>
				</mxCell>
				<mxCell id="4808119760_4808119136" value="['args']" style="endArrow=classic;html=1;" parent="1" source="4808119760" target="4808119136" edge="1">
					<mxGeometry width="50" height="50" relative="1" as="geometry">
						<mxPoint x="400" y="440" as="sourcePoint"/>
						<mxPoint x="450" y="390" as="targetPoint"/>
					</mxGeometry>
				</mxCell>
				<mxCell id="4808119136_4808118416" value="['args', 0]" style="endArrow=classic;html=1;" parent="1" source="4808119136" target="4808118416" edge="1">
					<mxGeometry width="50" height="50" relative="1" as="geometry">
						<mxPoint x="400" y="440" as="sourcePoint"/>
						<mxPoint x="450" y="390" as="targetPoint"/>
					</mxGeometry>
				</mxCell>
				<mxCell id="4808119136_4808118320" value="['args', 1]" style="endArrow=classic;html=1;" parent="1" source="4808119136" target="4808118320" edge="1">
					<mxGeometry width="50" height="50" relative="1" as="geometry">
						<mxPoint x="400" y="440" as="sourcePoint"/>
						<mxPoint x="450" y="390" as="targetPoint"/>
					</mxGeometry>
				</mxCell>
				<mxCell id="4808119760_4808118992" value="['body', 0]" style="endArrow=classic;html=1;" parent="1" source="4808119760" target="4808118992" edge="1">
					<mxGeometry width="50" height="50" relative="1" as="geometry">
						<mxPoint x="400" y="440" as="sourcePoint"/>
						<mxPoint x="450" y="390" as="targetPoint"/>
					</mxGeometry>
				</mxCell>
				<mxCell id="4808118992_4808118128" value="['value']" style="endArrow=classic;html=1;" parent="1" source="4808118992" target="4808118128" edge="1">
					<mxGeometry width="50" height="50" relative="1" as="geometry">
						<mxPoint x="400" y="440" as="sourcePoint"/>
						<mxPoint x="450" y="390" as="targetPoint"/>
					</mxGeometry>
				</mxCell>
				<mxCell id="4808118128_4808115968" value="['left']" style="endArrow=classic;html=1;" parent="1" source="4808118128" target="4808115968" edge="1">
					<mxGeometry width="50" height="50" relative="1" as="geometry">
						<mxPoint x="400" y="440" as="sourcePoint"/>
						<mxPoint x="450" y="390" as="targetPoint"/>
					</mxGeometry>
				</mxCell>
				<mxCell id="4808115968_4808120624" value="['ctx']" style="endArrow=classic;html=1;" parent="1" source="4808115968" target="4808120624" edge="1">
					<mxGeometry width="50" height="50" relative="1" as="geometry">
						<mxPoint x="400" y="440" as="sourcePoint"/>
						<mxPoint x="450" y="390" as="targetPoint"/>
					</mxGeometry>
				</mxCell>
				<mxCell id="4808118128_4808116208" value="['op']" style="endArrow=classic;html=1;" parent="1" source="4808118128" target="4808116208" edge="1">
					<mxGeometry width="50" height="50" relative="1" as="geometry">
						<mxPoint x="400" y="440" as="sourcePoint"/>
						<mxPoint x="450" y="390" as="targetPoint"/>
					</mxGeometry>
				</mxCell>
				<mxCell id="4808118128_4808116592" value="['right']" style="endArrow=classic;html=1;" parent="1" source="4808118128" target="4808116592" edge="1">
					<mxGeometry width="50" height="50" relative="1" as="geometry">
						<mxPoint x="400" y="440" as="sourcePoint"/>
						<mxPoint x="450" y="390" as="targetPoint"/>
					</mxGeometry>
				</mxCell>
				<mxCell id="4808116592_4808120624" value="['ctx']" style="endArrow=classic;html=1;" parent="1" source="4808116592" target="4808120624" edge="1">
					<mxGeometry width="50" height="50" relative="1" as="geometry">
						<mxPoint x="400" y="440" as="sourcePoint"/>
						<mxPoint x="450" y="390" as="targetPoint"/>
					</mxGeometry>
				</mxCell>
				<mxCell id="4808114624_4808119184" value="['body', 1]" style="endArrow=classic;html=1;" parent="1" source="4808114624" target="4808119184" edge="1">
					<mxGeometry width="50" height="50" relative="1" as="geometry">
						<mxPoint x="400" y="440" as="sourcePoint"/>
						<mxPoint x="450" y="390" as="targetPoint"/>
					</mxGeometry>
				</mxCell>
				<mxCell id="4808119184_4808118944" value="['targets', 0]" style="endArrow=classic;html=1;" parent="1" source="4808119184" target="4808118944" edge="1">
					<mxGeometry width="50" height="50" relative="1" as="geometry">
						<mxPoint x="400" y="440" as="sourcePoint"/>
						<mxPoint x="450" y="390" as="targetPoint"/>
					</mxGeometry>
				</mxCell>
				<mxCell id="4808118944_4808120144" value="['elts', 0]" style="endArrow=classic;html=1;" parent="1" source="4808118944" target="4808120144" edge="1">
					<mxGeometry width="50" height="50" relative="1" as="geometry">
						<mxPoint x="400" y="440" as="sourcePoint"/>
						<mxPoint x="450" y="390" as="targetPoint"/>
					</mxGeometry>
				</mxCell>
				<mxCell id="4808120144_4808115872" value="['ctx']" style="endArrow=classic;html=1;" parent="1" source="4808120144" target="4808115872" edge="1">
					<mxGeometry width="50" height="50" relative="1" as="geometry">
						<mxPoint x="400" y="440" as="sourcePoint"/>
						<mxPoint x="450" y="390" as="targetPoint"/>
					</mxGeometry>
				</mxCell>
				<mxCell id="4808118944_4808118752" value="['elts', 1]" style="endArrow=classic;html=1;" parent="1" source="4808118944" target="4808118752" edge="1">
					<mxGeometry width="50" height="50" relative="1" as="geometry">
						<mxPoint x="400" y="440" as="sourcePoint"/>
						<mxPoint x="450" y="390" as="targetPoint"/>
					</mxGeometry>
				</mxCell>
				<mxCell id="4808118752_4808115872" value="['ctx']" style="endArrow=classic;html=1;" parent="1" source="4808118752" target="4808115872" edge="1">
					<mxGeometry width="50" height="50" relative="1" as="geometry">
						<mxPoint x="400" y="440" as="sourcePoint"/>
						<mxPoint x="450" y="390" as="targetPoint"/>
					</mxGeometry>
				</mxCell>
				<mxCell id="4808118944_4808115872" value="['ctx']" style="endArrow=classic;html=1;" parent="1" source="4808118944" target="4808115872" edge="1">
					<mxGeometry width="50" height="50" relative="1" as="geometry">
						<mxPoint x="400" y="440" as="sourcePoint"/>
						<mxPoint x="450" y="390" as="targetPoint"/>
					</mxGeometry>
				</mxCell>
				<mxCell id="4808119184_4808118368" value="['value']" style="endArrow=classic;html=1;" parent="1" source="4808119184" target="4808118368" edge="1">
					<mxGeometry width="50" height="50" relative="1" as="geometry">
						<mxPoint x="400" y="440" as="sourcePoint"/>
						<mxPoint x="450" y="390" as="targetPoint"/>
					</mxGeometry>
				</mxCell>
				<mxCell id="4808118368_4808120192" value="['elts', 0]" style="endArrow=classic;html=1;" parent="1" source="4808118368" target="4808120192" edge="1">
					<mxGeometry width="50" height="50" relative="1" as="geometry">
						<mxPoint x="400" y="440" as="sourcePoint"/>
						<mxPoint x="450" y="390" as="targetPoint"/>
					</mxGeometry>
				</mxCell>
				<mxCell id="4808118368_4808114480" value="['elts', 1]" style="endArrow=classic;html=1;" parent="1" source="4808118368" target="4808114480" edge="1">
					<mxGeometry width="50" height="50" relative="1" as="geometry">
						<mxPoint x="400" y="440" as="sourcePoint"/>
						<mxPoint x="450" y="390" as="targetPoint"/>
					</mxGeometry>
				</mxCell>
				<mxCell id="4808118368_4808120624" value="['ctx']" style="endArrow=classic;html=1;" parent="1" source="4808118368" target="4808120624" edge="1">
					<mxGeometry width="50" height="50" relative="1" as="geometry">
						<mxPoint x="400" y="440" as="sourcePoint"/>
						<mxPoint x="450" y="390" as="targetPoint"/>
					</mxGeometry>
				</mxCell>
				<mxCell id="4808114624_4541925984" value="['body', 2]" style="endArrow=classic;html=1;" parent="1" source="4808114624" target="4541925984" edge="1">
					<mxGeometry width="50" height="50" relative="1" as="geometry">
						<mxPoint x="400" y="440" as="sourcePoint"/>
						<mxPoint x="450" y="390" as="targetPoint"/>
					</mxGeometry>
				</mxCell>
				<mxCell id="4541925984_4474393248" value="['targets', 0]" style="endArrow=classic;html=1;" parent="1" source="4541925984" target="4474393248" edge="1">
					<mxGeometry width="50" height="50" relative="1" as="geometry">
						<mxPoint x="400" y="440" as="sourcePoint"/>
						<mxPoint x="450" y="390" as="targetPoint"/>
					</mxGeometry>
				</mxCell>
				<mxCell id="4474393248_4541938896" value="['elts', 0]" style="endArrow=classic;html=1;" parent="1" source="4474393248" target="4541938896" edge="1">
					<mxGeometry width="50" height="50" relative="1" as="geometry">
						<mxPoint x="400" y="440" as="sourcePoint"/>
						<mxPoint x="450" y="390" as="targetPoint"/>
					</mxGeometry>
				</mxCell>
				<mxCell id="4541938896_4473949488" value="['ctx']" style="endArrow=classic;html=1;" parent="1" source="4541938896" target="4473949488" edge="1">
					<mxGeometry width="50" height="50" relative="1" as="geometry">
						<mxPoint x="400" y="440" as="sourcePoint"/>
						<mxPoint x="450" y="390" as="targetPoint"/>
					</mxGeometry>
				</mxCell>
				<mxCell id="4474393248_4541939040" value="['elts', 1]" style="endArrow=classic;html=1;" parent="1" source="4474393248" target="4541939040" edge="1">
					<mxGeometry width="50" height="50" relative="1" as="geometry">
						<mxPoint x="400" y="440" as="sourcePoint"/>
						<mxPoint x="450" y="390" as="targetPoint"/>
					</mxGeometry>
				</mxCell>
				<mxCell id="4541939040_4541938800" value="['ctx']" style="endArrow=classic;html=1;" parent="1" source="4541939040" target="4541938800" edge="1">
					<mxGeometry width="50" height="50" relative="1" as="geometry">
						<mxPoint x="400" y="440" as="sourcePoint"/>
						<mxPoint x="450" y="390" as="targetPoint"/>
					</mxGeometry>
				</mxCell>
				<mxCell id="4541925984_4541938992" value="['value']" style="endArrow=classic;html=1;" parent="1" source="4541925984" target="4541938992" edge="1">
					<mxGeometry width="50" height="50" relative="1" as="geometry">
						<mxPoint x="400" y="440" as="sourcePoint"/>
						<mxPoint x="450" y="390" as="targetPoint"/>
					</mxGeometry>
				</mxCell>
				<mxCell id="4541938992_4808119280" value="['elts', 0]" style="endArrow=classic;html=1;" parent="1" source="4541938992" target="4808119280" edge="1">
					<mxGeometry width="50" height="50" relative="1" as="geometry">
						<mxPoint x="400" y="440" as="sourcePoint"/>
						<mxPoint x="450" y="390" as="targetPoint"/>
					</mxGeometry>
				</mxCell>
				<mxCell id="4808119280_4808120624" value="['ctx']" style="endArrow=classic;html=1;" parent="1" source="4808119280" target="4808120624" edge="1">
					<mxGeometry width="50" height="50" relative="1" as="geometry">
						<mxPoint x="400" y="440" as="sourcePoint"/>
						<mxPoint x="450" y="390" as="targetPoint"/>
					</mxGeometry>
				</mxCell>
				<mxCell id="4541938992_4541938320" value="['elts', 1]" style="endArrow=classic;html=1;" parent="1" source="4541938992" target="4541938320" edge="1">
					<mxGeometry width="50" height="50" relative="1" as="geometry">
						<mxPoint x="400" y="440" as="sourcePoint"/>
						<mxPoint x="450" y="390" as="targetPoint"/>
					</mxGeometry>
				</mxCell>
				<mxCell id="4541938320_4808120624" value="['ctx']" style="endArrow=classic;html=1;" parent="1" source="4541938320" target="4808120624" edge="1">
					<mxGeometry width="50" height="50" relative="1" as="geometry">
						<mxPoint x="400" y="440" as="sourcePoint"/>
						<mxPoint x="450" y="390" as="targetPoint"/>
					</mxGeometry>
				</mxCell>
				<mxCell id="4808114624_4808114672" value="['body', 3]" style="endArrow=classic;html=1;" parent="1" source="4808114624" target="4808114672" edge="1">
					<mxGeometry width="50" height="50" relative="1" as="geometry">
						<mxPoint x="400" y="440" as="sourcePoint"/>
						<mxPoint x="450" y="390" as="targetPoint"/>
					</mxGeometry>
				</mxCell>
				<mxCell id="4808114672_4808120096" value="['targets', 0]" style="endArrow=classic;html=1;" parent="1" source="4808114672" target="4808120096" edge="1">
					<mxGeometry width="50" height="50" relative="1" as="geometry">
						<mxPoint x="400" y="440" as="sourcePoint"/>
						<mxPoint x="450" y="390" as="targetPoint"/>
					</mxGeometry>
				</mxCell>
				<mxCell id="4808120096_4808115872" value="['ctx']" style="endArrow=classic;html=1;" parent="1" source="4808120096" target="4808115872" edge="1">
					<mxGeometry width="50" height="50" relative="1" as="geometry">
						<mxPoint x="400" y="440" as="sourcePoint"/>
						<mxPoint x="450" y="390" as="targetPoint"/>
					</mxGeometry>
				</mxCell>
				<mxCell id="4808114672_4541938608" value="['value']" style="endArrow=classic;html=1;" parent="1" source="4808114672" target="4541938608" edge="1">
					<mxGeometry width="50" height="50" relative="1" as="geometry">
						<mxPoint x="400" y="440" as="sourcePoint"/>
						<mxPoint x="450" y="390" as="targetPoint"/>
					</mxGeometry>
				</mxCell>
				<mxCell id="4541938608_4541939088" value="['left']" style="endArrow=classic;html=1;" parent="1" source="4541938608" target="4541939088" edge="1">
					<mxGeometry width="50" height="50" relative="1" as="geometry">
						<mxPoint x="400" y="440" as="sourcePoint"/>
						<mxPoint x="450" y="390" as="targetPoint"/>
					</mxGeometry>
				</mxCell>
				<mxCell id="4541939088_4541925936" value="['ctx']" style="endArrow=classic;html=1;" parent="1" source="4541939088" target="4541925936" edge="1">
					<mxGeometry width="50" height="50" relative="1" as="geometry">
						<mxPoint x="400" y="440" as="sourcePoint"/>
						<mxPoint x="450" y="390" as="targetPoint"/>
					</mxGeometry>
				</mxCell>
				<mxCell id="4541938608_4541939184" value="['op']" style="endArrow=classic;html=1;" parent="1" source="4541938608" target="4541939184" edge="1">
					<mxGeometry width="50" height="50" relative="1" as="geometry">
						<mxPoint x="400" y="440" as="sourcePoint"/>
						<mxPoint x="450" y="390" as="targetPoint"/>
					</mxGeometry>
				</mxCell>
				<mxCell id="4541938608_4541939136" value="['right']" style="endArrow=classic;html=1;" parent="1" source="4541938608" target="4541939136" edge="1">
					<mxGeometry width="50" height="50" relative="1" as="geometry">
						<mxPoint x="400" y="440" as="sourcePoint"/>
						<mxPoint x="450" y="390" as="targetPoint"/>
					</mxGeometry>
				</mxCell>
				<mxCell id="4541939136_4541925936" value="['ctx']" style="endArrow=classic;html=1;" parent="1" source="4541939136" target="4541925936" edge="1">
					<mxGeometry width="50" height="50" relative="1" as="geometry">
						<mxPoint x="400" y="440" as="sourcePoint"/>
						<mxPoint x="450" y="390" as="targetPoint"/>
					</mxGeometry>
				</mxCell>
				<mxCell id="4808114624_4808118224" value="['body', 4]" style="endArrow=classic;html=1;" parent="1" source="4808114624" target="4808118224" edge="1">
					<mxGeometry width="50" height="50" relative="1" as="geometry">
						<mxPoint x="400" y="440" as="sourcePoint"/>
						<mxPoint x="450" y="390" as="targetPoint"/>
					</mxGeometry>
				</mxCell>
				<mxCell id="4808118224_4808114240" value="['value']" style="endArrow=classic;html=1;" parent="1" source="4808118224" target="4808114240" edge="1">
					<mxGeometry width="50" height="50" relative="1" as="geometry">
						<mxPoint x="400" y="440" as="sourcePoint"/>
						<mxPoint x="450" y="390" as="targetPoint"/>
					</mxGeometry>
				</mxCell>
				<mxCell id="4808114240_4808120624" value="['ctx']" style="endArrow=classic;html=1;" parent="1" source="4808114240" target="4808120624" edge="1">
					<mxGeometry width="50" height="50" relative="1" as="geometry">
						<mxPoint x="400" y="440" as="sourcePoint"/>
						<mxPoint x="450" y="390" as="targetPoint"/>
					</mxGeometry>
				</mxCell>
			</root>
		</mxGraphModel>
	</diagram>
</mxfile>
